<svg width="24" height="24" viewBox="0 0 24 24" fill="none" xmlns="http://www.w3.org/2000/svg">
<path d="M12.1334 4.83954C12.2731 4.51963 12.7269 4.51963 12.8666 4.83954L14.7243 9.09406C14.7823 9.22691 14.9076 9.31798 15.0519 9.3321L19.6722 9.78415C20.0197 9.81814 20.1599 10.2497 19.8988 10.4814L16.4266 13.5629C16.3182 13.6591 16.2703 13.8065 16.3014 13.9481L17.2993 18.482C17.3743 18.8229 17.0072 19.0896 16.7061 18.9129L12.7025 16.5629C12.5775 16.4895 12.4225 16.4895 12.2975 16.5629L8.29386 18.9129C7.99281 19.0896 7.6257 18.8229 7.70073 18.482L8.69857 13.9481C8.72973 13.8065 8.68185 13.6591 8.57342 13.5629L5.10119 10.4814C4.8401 10.2497 4.98033 9.81814 5.32775 9.78415L9.9481 9.3321C10.0924 9.31798 10.2177 9.22691 10.2757 9.09406L12.1334 4.83954Z" fill="#FFC529"/>
</svg>
